<svg xmlns="http://www.w3.org/2000/svg" width="156" height="20" viewBox="0 0 156 20">
  <g id="logo-tablet-mobile" transform="translate(-365.544 -290.551)">
    <path id="Path_1328" data-name="Path 1328" d="M404.127,291.189a.766.766,0,0,0-.786-.58h-2.588a.82.82,0,0,0-.833.8v6.9a.164.164,0,0,1-.164.164h-11.37a.164.164,0,0,1-.163-.164v-6.9a.821.821,0,0,0-.834-.8H384.8a.844.844,0,0,0-.819.612l-.016,18.457a.824.824,0,0,0,.834.831h2.588a.824.824,0,0,0,.834-.831v-6.9a.164.164,0,0,1,.163-.164h11.37a.164.164,0,0,1,.164.164v6.9a.823.823,0,0,0,.833.831h2.588a.824.824,0,0,0,.834-.831V291.413a.375.375,0,0,0-.031-.182A.14.14,0,0,1,404.127,291.189Z" transform="translate(7.49 0.024)"></path>
    <path id="Path_1329" data-name="Path 1329" d="M404.1,290.609h-2.643a.821.821,0,0,0-.834.8v18.265a.824.824,0,0,0,.834.831H404.1a.823.823,0,0,0,.833-.831V291.413A.82.82,0,0,0,404.1,290.609Z" transform="translate(14.301 0.024)"></path>
    <path id="Path_1330" data-name="Path 1330" d="M442.729,290.59H422.82a.828.828,0,0,0-.8.831v2.33a.854.854,0,0,0,.833.831H430.5a.163.163,0,0,1,.164.164v14.941a.823.823,0,0,0,.833.831h2.59a.824.824,0,0,0,.833-.831V294.746a.163.163,0,0,1,.164-.164h7.649a.831.831,0,0,0,.806-.831v-2.33A.83.83,0,0,0,442.729,290.59Z" transform="translate(22.957 0.016)"></path>
    <path id="Path_1331" data-name="Path 1331" d="M476.8,290.551H461.923a.819.819,0,0,0-.833.8V309.7a.823.823,0,0,0,.833.831h2.56a.824.824,0,0,0,.834-.831v-4.765a.164.164,0,0,1,.164-.164H476.8a5.9,5.9,0,0,0,5.9-5.877v-2.468A5.9,5.9,0,0,0,476.8,290.551Zm1.59,8.043a2.207,2.207,0,0,1-2.194,2.214H465.482a.163.163,0,0,1-.164-.162V294.68a.163.163,0,0,1,.164-.164H476.2a2.193,2.193,0,0,1,2.194,2.186Z" transform="translate(38.841 0)"></path>
    <path id="Path_1332" data-name="Path 1332" d="M384.865,298.9a.14.14,0,0,1-.028-.016.386.386,0,0,0-.129-.059.14.14,0,0,1-.058-.013,5.76,5.76,0,0,0-2.081-.392H372.049a1.967,1.967,0,1,1,0-3.906h9.5a2.166,2.166,0,0,1,2.194,1.981.4.4,0,0,0,.394.4h3.525a.463.463,0,0,0,.392-.473,5.829,5.829,0,0,0-1.578-4.01,5.5,5.5,0,0,0-.613-.557,4.5,4.5,0,0,0-.713-.505,5.376,5.376,0,0,0-.714-.36.164.164,0,0,1-.329,0h0a.169.169,0,0,1,.042-.11,6.413,6.413,0,0,0-2-.329H371.443a6.108,6.108,0,0,0-2.234.422,6.3,6.3,0,0,0-.732.364,4.369,4.369,0,0,0-.7.492,5.894,5.894,0,0,0-.666.6,5.717,5.717,0,0,0-1.531,3.4,4.215,4.215,0,0,0-.034.68,3.406,3.406,0,0,0,.027.538,5.83,5.83,0,0,0,1.711,3.635,6.1,6.1,0,0,0,1.942,1.29l.054.018.044.016a6.29,6.29,0,0,0,2.121.381h10.519a2.2,2.2,0,0,1,2.194,1.983l0,.155a2.192,2.192,0,0,1-2.2,2.043h-9.912a2.165,2.165,0,0,1-2.183-1.949.39.39,0,0,0-.391-.354h-3.539a.392.392,0,0,0-.392.391,5.9,5.9,0,0,0,3.683,5.465.539.539,0,0,0,.06.017l.041.016a6.188,6.188,0,0,0,2.115.38h11.125a6.184,6.184,0,0,0,2.217-.413,5.946,5.946,0,0,0,3.683-5.279v-.755a5.8,5.8,0,0,0-1.768-3.958A5.932,5.932,0,0,0,384.865,298.9Z" transform="translate(0 0)"></path>
    <path id="Path_1333" data-name="Path 1333" d="M425.321,290.609H411.845a6.1,6.1,0,0,0-2.234.421,6.571,6.571,0,0,0-.734.365,4.338,4.338,0,0,0-.7.493,5.882,5.882,0,0,0-.666.6,5.717,5.717,0,0,0-1.531,3.4,4.386,4.386,0,0,0-.034.68v13.111a.823.823,0,0,0,.833.831h2.588a.824.824,0,0,0,.834-.831v-6.9a.164.164,0,0,1,.164-.164h12.091a.821.821,0,0,0,.834-.8v-2.5a.823.823,0,0,0-.834-.83H410.365a.164.164,0,0,1-.164-.164v-1.731a.161.161,0,0,1,.067-.131,2.178,2.178,0,0,1,2.183-1.881h12.87a.843.843,0,0,0,.833-.831v-2.33A.82.82,0,0,0,425.321,290.609Z" transform="translate(16.428 0.024)"></path>
    <path id="Path_1334" data-name="Path 1334" d="M463.7,290.551h-2.643a.843.843,0,0,0-.833.831V306.6H450.72a2.165,2.165,0,0,1-2.194-1.984V291.382a.854.854,0,0,0-.833-.831h-2.644a.844.844,0,0,0-.834.831v13.3a5.9,5.9,0,0,0,3.693,5.468,5.974,5.974,0,0,0,2.207.382l10.112.013v0h4.31V291.382A.843.843,0,0,0,463.7,290.551Z" transform="translate(31.988 0)"></path>
  </g>
</svg>